# xmcd
#
# Track frame offsets:
#	150
#	6682
#	28110
#	44617
#	62527
#	78640
#	96277
#	113627
#	129122
#	147551
#	165259
#
# Disc length: 2480 seconds
#
# Revision: 1
# Processed by: cddbd v1.5.1PL2 Copyright (c) Steve Scherf et al.
# Submitted via: audiograbber 1.83.01
#
DISCID=9109ae0b
DTITLE=Danny Fresh - I.VENI
DYEAR=2006
DGENRE=Christian Rap
TTITLE0=Dreieinige Styles 1
TTITLE1=Strike back
TTITLE2=Flip aus
TTITLE3=Einen Moment feat. Ornella
TTITLE4=BB Baby
TTITLE5=Horizont feat. Ornella
TTITLE6=Culture Clash feat. M. Farrah and N. Hadfield
TTITLE7=Wollt Ihr mehr
TTITLE8=Gegenwind feat. Ornella
TTITLE9=Nachfolger feat. sakiZULU
TTITLE10=Vorbei feat. Mahrijusz
EXTD=
EXTT0=
EXTT1=
EXTT2=
EXTT3=
EXTT4=
EXTT5=
EXTT6=
EXTT7=
EXTT8=
EXTT9=
EXTT10=
PLAYORDER=
